<svg width="256" height="256" viewBox="0 0 67.733 67.733" xmlns="http://www.w3.org/2000/svg"><path style="fill:#555;stroke-width:0" d="M128 0A128 128 0 0 0 0 128a128 128 0 0 0 128 128 128 128 0 0 0 128-128A128 128 0 0 0 128 0zM64 112h128v32H64v-32z" transform="scale(.26458)"/><path style="fill:#555;fill-opacity:1;stroke-width:0" d="M0-42.333h67.733V-25.4H0z"/><path style="fill:#555;stroke-width:0" d="M-33.867 0a33.867 33.867 0 0 0-33.866 33.867 33.867 33.867 0 0 0 33.866 33.866A33.867 33.867 0 0 0 0 33.867 33.867 33.867 0 0 0-33.867 0Zm-25.4 25.4h50.8v16.933h-50.8Z"/></svg>