<?xml version="1.0" encoding="UTF-8" standalone="no"?>
<!-- Created with Inkscape (http://www.inkscape.org/) -->

<svg
   width="256"
   height="256"
   viewBox="0 0 67.733332 67.733331"
   version="1.1"
   id="svg5"
   inkscape:version="1.1 (c68e22c387, 2021-05-23)"
   sodipodi:docname="Hamburger.svg"
   xmlns:inkscape="http://www.inkscape.org/namespaces/inkscape"
   xmlns:sodipodi="http://sodipodi.sourceforge.net/DTD/sodipodi-0.dtd"
   xmlns="http://www.w3.org/2000/svg"
   xmlns:svg="http://www.w3.org/2000/svg">
  <sodipodi:namedview
     id="namedview7"
     pagecolor="#ffffff"
     bordercolor="#999999"
     borderopacity="1"
     inkscape:pageshadow="0"
     inkscape:pageopacity="0"
     inkscape:pagecheckerboard="true"
     inkscape:document-units="px"
     showgrid="true"
     width="256mm"
     units="px"
     inkscape:snap-bbox="true"
     inkscape:bbox-paths="true"
     inkscape:bbox-nodes="true"
     inkscape:snap-bbox-midpoints="true"
     inkscape:snap-bbox-edge-midpoints="true"
     inkscape:object-paths="true"
     inkscape:snap-intersection-paths="true"
     inkscape:snap-smooth-nodes="true"
     inkscape:snap-midpoints="true"
     inkscape:zoom="0.6708123"
     inkscape:cx="243.73435"
     inkscape:cy="51.430184"
     inkscape:window-width="1920"
     inkscape:window-height="1017"
     inkscape:window-x="-8"
     inkscape:window-y="-8"
     inkscape:window-maximized="1"
     inkscape:current-layer="layer1"
     fit-margin-top="0"
     fit-margin-left="0"
     fit-margin-right="0"
     fit-margin-bottom="0">
    <inkscape:grid
       type="xygrid"
       id="grid9"
       spacingx="8.4666664"
       spacingy="8.4666664"
       empspacing="2"
       visible="true"
       originx="0"
       originy="0" />
  </sodipodi:namedview>
  <defs
     id="defs2" />
  <g
     inkscape:label="Layer 1"
     inkscape:groupmode="layer"
     id="layer1">
    <rect
       style="fill:#573164;stroke-width:0"
       id="rect1029"
       width="67.73333"
       height="16.933332"
       x="1.4270507e-06"
       y="-67.73333" />
    <rect
       style="fill:#573164;stroke-width:0"
       id="rect1031"
       width="67.73333"
       height="16.933332"
       x="7.1352542e-07"
       y="-16.933332" />
    <rect
       style="fill:#573164;stroke-width:0"
       id="rect1033"
       width="67.73333"
       height="16.933332"
       x="7.1352542e-07"
       y="-42.333332" />
    <rect
       style="fill:#573164;stroke-width:0"
       id="rect849"
       width="67.73333"
       height="13.546666"
       x="-67.73333"
       y="0" />
    <rect
       style="fill:#573164;stroke-width:0"
       id="rect851"
       width="67.73333"
       height="13.546666"
       x="-67.73333"
       y="27.093332" />
    <rect
       style="fill:#573164;stroke-width:0"
       id="rect853"
       width="67.73333"
       height="13.546666"
       x="-67.73333"
       y="54.186665" />
    <path
       id="rect980"
       style="fill:#573164;stroke-width:0"
       d="m -128.69333,0 a 6.773333,6.7733328 0 0 0 -6.77333,6.7733334 6.773333,6.7733328 0 0 0 6.77333,6.7733326 h 54.186662 A 6.773333,6.7733328 0 0 0 -67.733332,6.7733334 6.773333,6.7733328 0 0 0 -74.506668,0 Z" />
    <path
       id="rect980-0"
       style="fill:#573164;stroke-width:0"
       d="m -128.69333,27.093331 a 6.773333,6.7733328 0 0 0 -6.77333,6.773333 6.773333,6.7733328 0 0 0 6.77333,6.773333 h 54.186662 a 6.773333,6.7733328 0 0 0 6.773336,-6.773333 6.773333,6.7733328 0 0 0 -6.773336,-6.773333 z" />
    <path
       id="rect980-0-0"
       style="fill:#573164;stroke-width:0"
       d="m -128.69333,54.186663 a 6.773333,6.7733328 0 0 0 -6.77333,6.773333 6.773333,6.7733328 0 0 0 6.77333,6.773335 h 54.186662 a 6.773333,6.7733328 0 0 0 6.773336,-6.773335 6.773333,6.7733328 0 0 0 -6.773336,-6.773333 z" />
    <circle
       style="fill:#573164;stroke-width:0"
       id="path1271"
       cx="93.133331"
       cy="-59.266666"
       r="8.4666662" />
    <circle
       style="fill:#573164;stroke-width:0"
       id="path1273"
       cx="143.93333"
       cy="-59.266666"
       r="8.4666662" />
  </g>
</svg>
