<svg width="256" height="256" viewBox="0 0 67.733 67.733" xmlns="http://www.w3.org/2000/svg"><path style="fill:#555;stroke-width:0" d="M128 0A128 128 0 0 0 0 128a128 128 0 0 0 128 128 128 128 0 0 0 128-128A128 128 0 0 0 128 0zm-16 64h32v48h48v32h-48v48h-32v-48H64v-32h48V64z" transform="scale(.26458)"/><path style="fill:#555;stroke-width:0" d="M-33.867 0a33.867 33.867 0 0 0-33.866 33.867 33.867 33.867 0 0 0 33.866 33.866A33.867 33.867 0 0 0 0 33.867 33.867 33.867 0 0 0-33.867 0Zm-8.466 8.467H-25.4V25.4h16.933v16.933H-25.4v16.934h-16.933V42.333h-16.934V25.4h16.934z"/><path style="fill:#555;fill-opacity:1;stroke-width:0" d="M25.4-67.733h16.933V0H25.4z"/><path style="fill:#555;fill-opacity:1;stroke-width:0" d="M0-42.333h67.733V-25.4H0z"/></svg>